# xmcd
#
# Track frame offsets: 
#        150
#        14405
#        31423
#        51980
#        70405
#        85368
#        99265
#        112108
#        128780
#        142283
#
# Disc length: 2162 seconds
#
# Revision: 5
# Processed by: cddbd v1.5.2PL0 Copyright (c) Steve Scherf et al.
# Submitted via: ExactAudioCopy v0.95b4
#
DISCID=9208700a
DTITLE=Patty Loveless - When Fallen Angels Fly
DYEAR=1994
DGENRE=Country
TTITLE0=A Handful of Dust
TTITLE1=Halfway Down
TTITLE2=When The Fallen Angels Fly
TTITLE3=You Don't Even Know Who I Am
TTITLE4=Feelin' Good About Feelin' Bad
TTITLE5=Here I Am
TTITLE6=I Try to Think About Elvis
TTITLE7=Ships
TTITLE8=Old Weakness (Coming On Strong)
TTITLE9=Over My Shoulder
EXTD=
EXTT0=
EXTT1=
EXTT2=
EXTT3=
EXTT4=
EXTT5=
EXTT6=
EXTT7=
EXTT8=
EXTT9=
PLAYORDER=
